<?xml version="1.0" standalone="no"?>
<!DOCTYPE svg PUBLIC "-//W3C//DTD SVG 20010904//EN"
 "http://www.w3.org/TR/2001/REC-SVG-20010904/DTD/svg10.dtd">
<svg version="1.0" xmlns="http://www.w3.org/2000/svg"
 width="640.000000pt" height="640.000000pt" viewBox="0 0 640.000000 640.000000"
 preserveAspectRatio="xMidYMid meet">

<g transform="translate(0.000000,640.000000) scale(0.100000,-0.100000)"
fill="#000000" stroke="none">
<path d="M3357 5738 c-10 -37 -107 -712 -107 -740 0 -4 -4 -8 -8 -8 -5 0 -12
44 -16 98 -3 53 -9 106 -12 118 l-5 21 -41 -20 c-59 -29 -120 -28 -153 3 -40
38 -55 73 -55 134 0 47 4 60 30 89 40 46 78 60 146 55 l57 -5 -7 81 c-3 45 -9
102 -12 128 l-6 46 -47 7 c-70 9 -193 -11 -251 -40 -131 -66 -210 -208 -210
-375 0 -226 140 -396 345 -417 51 -5 155 16 206 42 14 8 30 10 35 6 8 -8 37
-13 244 -41 162 -22 208 -34 298 -76 l93 -43 38 82 39 82 1 -100 1 -101 96
-38 c53 -20 97 -36 99 -34 2 2 43 86 93 188 49 102 126 261 172 354 65 133 79
170 69 178 -27 18 -189 98 -199 98 -5 0 -30 -39 -54 -87 l-45 -88 0 107 c-1
124 7 114 -129 168 -50 21 -86 30 -91 24 -4 -5 -65 -142 -136 -304 -70 -162
-131 -302 -136 -310 -6 -10 -7 11 -3 58 5 65 4 72 -12 72 -9 0 -46 5 -81 11
-44 8 -63 16 -63 26 0 11 7 13 28 9 15 -3 52 -8 82 -11 l55 -7 14 99 c7 54 15
110 18 125 5 26 5 26 -71 33 -42 4 -79 11 -82 16 -7 12 70 11 121 -1 22 -5 41
-8 42 -6 3 3 42 231 43 247 0 7 -13 9 -238 39 -78 11 -153 22 -166 26 -19 4
-25 1 -29 -18z"/>
<path d="M1920 5403 c-96 -58 -176 -106 -178 -108 -1 -1 78 -143 177 -316 99
-172 179 -315 177 -316 -1 -2 -17 4 -35 13 -18 9 -98 42 -179 73 -114 45 -150
63 -159 82 -17 33 -56 144 -93 266 l-32 103 -94 -98 c-101 -104 -102 -106 -78
-192 l7 -25 -30 28 c-16 15 -34 27 -39 27 -6 0 -50 -38 -100 -85 l-89 -85 150
-146 c83 -81 212 -207 288 -280 l138 -133 80 89 c44 49 84 92 90 96 7 4 2 16
-13 32 -21 23 -21 25 -3 17 11 -4 27 -9 35 -11 8 -2 50 29 95 71 44 42 100 87
125 102 25 14 77 45 115 68 39 23 107 63 153 90 45 27 82 54 82 60 0 6 -25 57
-56 113 -62 114 -53 110 -139 52 -60 -40 -62 -41 -74 -26 -9 11 2 22 54 54 36
23 65 45 65 50 0 5 -22 47 -50 93 -27 46 -54 92 -60 102 -10 16 -15 14 -68
-21 -81 -55 -82 -55 -82 -39 0 9 24 29 53 45 99 57 97 47 39 143 -28 46 -54
92 -57 102 -4 9 -15 17 -24 16 -9 0 -95 -48 -191 -106z"/>
<path d="M4558 5333 c-9 -16 -39 -59 -67 -96 -28 -37 -51 -73 -51 -80 0 -7 12
-20 28 -29 15 -9 35 -25 44 -35 15 -17 7 -30 -143 -231 -88 -117 -157 -217
-154 -222 3 -5 49 -44 101 -86 l94 -76 23 28 c12 15 65 84 117 153 53 69 118
154 144 188 54 69 49 68 112 10 l32 -29 32 47 c18 26 52 71 76 101 l43 53 -67
59 c-76 66 -334 272 -342 272 -3 0 -13 -12 -22 -27z"/>
<path d="M4969 4868 c-53 -46 -134 -114 -179 -153 -46 -38 -107 -90 -135 -115
-120 -106 -178 -155 -186 -158 -21 -8 -16 -14 201 -271 43 -51 80 -110 118
-190 30 -64 56 -117 58 -119 1 -2 17 4 35 13 l32 17 -21 -27 c-12 -15 -22 -34
-22 -41 0 -7 23 -61 50 -119 28 -58 50 -110 50 -116 0 -21 21 -6 71 54 30 34
82 94 117 134 l63 72 34 -15 c114 -47 292 41 340 169 26 68 10 125 -82 305
-41 81 -77 149 -79 151 -2 3 -21 -5 -42 -16 -20 -11 -113 -60 -207 -108 -93
-48 -224 -117 -290 -153 -66 -35 -124 -67 -130 -69 -12 -6 30 34 110 104 l60
52 -58 59 c-35 35 -55 62 -48 66 9 6 81 -62 89 -85 2 -5 10 -9 17 -9 15 0 188
136 194 152 2 5 -20 34 -49 63 -29 29 -47 55 -42 59 6 3 35 -22 65 -56 l56
-62 43 36 c24 19 66 56 93 81 47 42 49 46 34 63 -9 11 -71 85 -138 167 -67 81
-123 147 -124 147 -1 0 -45 -37 -98 -82z m371 -773 c0 -10 -10 -15 -27 -15
l-28 1 25 14 c31 18 30 18 30 0z"/>
<path d="M1006 4499 c-37 -61 -66 -112 -65 -113 2 -2 94 -62 204 -133 110 -71
254 -165 320 -208 66 -43 126 -78 133 -79 17 -1 156 214 145 224 -18 16 -653
420 -660 420 -4 0 -39 -50 -77 -111z"/>
<path d="M2870 4391 c-73 -23 -95 -36 -146 -83 l-43 -39 -17 36 c-58 124 -240
109 -309 -24 -13 -26 -16 -49 -12 -92 6 -71 29 -109 67 -109 24 0 29 -6 40
-45 9 -34 18 -45 32 -45 11 0 39 -12 63 -26 55 -32 77 -26 100 25 35 79 71 4
59 -122 -6 -66 -10 -75 -43 -105 -55 -51 -149 -111 -191 -122 -44 -12 -67 -6
-75 21 -8 24 -47 25 -67 2 -11 -13 -15 -37 -13 -86 2 -74 7 -86 30 -67 9 8 15
8 15 2 0 -18 30 -42 52 -42 11 0 26 -6 32 -14 22 -28 51 -27 97 3 24 17 45 28
47 26 2 -1 -7 -33 -20 -69 -20 -58 -26 -66 -43 -61 -44 13 -193 17 -244 6 -82
-18 -170 -64 -239 -126 -49 -45 -71 -75 -103 -140 -117 -243 -35 -533 189
-666 23 -14 40 -27 38 -30 -2 -2 12 -5 31 -6 20 -1 41 -7 46 -12 6 -6 27 -11
47 -12 31 0 26 -4 -45 -30 -57 -22 -90 -29 -115 -25 -24 4 -30 3 -20 -4 11 -7
7 -10 -17 -10 -17 0 -60 -15 -95 -34 -39 -21 -79 -34 -101 -34 -19 0 -41 -3
-47 -7 -6 -3 -26 -1 -46 5 -26 9 -39 9 -47 1 -14 -14 -30 -15 -22 -1 3 6 -1
10 -9 10 -14 0 -14 -3 -4 -20 7 -11 19 -18 26 -15 8 3 26 8 40 11 22 4 20 1
-11 -16 -36 -20 -40 -20 -57 -5 -10 9 -23 14 -29 10 -6 -3 -9 0 -6 8 4 9 -3
13 -25 11 -16 -1 -30 2 -30 7 0 5 -7 9 -15 9 -18 0 -20 -16 -2 -23 6 -3 -102
-6 -240 -6 -162 -1 -253 -5 -253 -11 0 -5 18 -10 40 -10 22 0 40 -5 40 -10 0
-13 -233 -1 -242 13 -4 7 -31 7 -83 1 -70 -9 -76 -8 -72 7 6 21 -19 15 -27 -7
-10 -25 -118 -9 -138 20 -5 8 -8 7 -8 -2 0 -7 9 -20 21 -30 11 -9 25 -26 30
-37 9 -18 9 -19 -4 -2 -18 22 -30 22 -18 0 6 -10 18 -36 27 -58 59 -141 179
-358 268 -484 266 -376 625 -680 1050 -886 292 -142 551 -218 886 -260 151
-19 519 -20 670 -1 767 96 1485 540 1932 1196 36 52 72 109 80 125 8 17 34 63
58 104 23 41 43 85 44 97 0 12 4 20 7 18 4 -2 21 31 40 74 18 42 37 82 42 89
5 7 6 27 3 45 -4 23 -3 27 2 13 8 -17 10 -15 21 18 7 21 10 41 7 44 -3 4 -6
-1 -6 -10 0 -9 -5 -19 -10 -22 -7 -4 -9 11 -6 45 3 29 2 50 -1 46 -3 -3 -7
-24 -9 -47 -4 -50 -6 -52 -39 -51 -14 0 -26 -4 -26 -9 -1 -5 -2 -13 -3 -18 -3
-23 -16 -22 -16 2 l0 26 -229 1 c-176 0 -231 -3 -235 -12 -5 -10 -7 -10 -12 0
-4 8 -31 12 -85 12 -64 0 -79 -3 -79 -15 0 -11 -11 -15 -40 -15 -26 0 -39 -4
-38 -12 4 -16 -83 -32 -127 -24 -19 4 -35 11 -35 17 0 6 -4 7 -10 4 -5 -3 -10
-1 -10 4 0 6 5 11 10 11 6 0 10 7 10 15 0 18 -46 21 -53 3 -3 -10 -9 -10 -27
0 -12 7 -25 11 -28 8 -3 -3 -1 -6 5 -6 23 0 20 -25 -3 -26 -14 -1 -21 2 -17 9
4 6 -2 8 -15 5 -29 -8 -28 0 1 12 21 8 21 9 -5 7 -15 -1 -24 -5 -21 -10 2 -4
-8 -5 -24 -2 -22 5 -21 2 10 -11 20 -9 37 -20 37 -25 0 -5 -13 -3 -30 6 -16 8
-38 15 -50 15 -12 0 -19 4 -16 8 2 4 -12 7 -32 5 -28 -2 -32 -1 -17 5 17 8 16
10 -12 14 -18 2 -30 1 -27 -4 12 -19 -37 -6 -63 16 -24 22 -25 24 -7 20 12 -3
25 -1 28 5 4 6 -5 9 -24 6 -31 -4 -104 30 -96 43 2 4 -6 8 -19 8 -13 1 -37 9
-54 17 -20 10 -44 14 -66 10 -19 -3 -35 -3 -35 0 0 2 35 21 77 41 133 63 234
189 268 332 52 216 -31 441 -207 562 -153 105 -397 109 -553 10 l-40 -25 -57
61 c-58 62 -65 81 -49 132 6 16 19 62 31 102 17 60 24 72 42 72 27 0 147 48
165 65 18 18 17 54 -2 61 -9 4 -50 1 -93 -6 -42 -7 -96 -10 -120 -9 l-43 4 45
59 c105 135 96 284 -25 404 -75 74 -207 135 -362 168 -96 20 -277 18 -347 -5z
m303 -407 c4 -4 -46 -62 -111 -129 -127 -132 -192 -229 -192 -283 0 -30 -3
-34 -22 -29 -13 3 -47 9 -75 13 -29 3 -53 11 -53 17 0 6 19 29 43 51 26 24 51
60 61 88 9 25 24 52 31 58 19 16 55 132 55 175 0 29 4 34 28 38 46 7 228 7
235 1z m381 -344 c-1 -14 -13 -63 -26 -110 l-24 -85 -34 3 c-19 2 -49 15 -67
29 l-33 25 27 47 c15 25 40 64 55 87 27 38 31 40 66 35 32 -6 37 -10 36 -31z
m-379 -47 c-8 -16 -18 -40 -24 -55 -12 -32 -25 -35 -49 -12 -15 16 -13 20 27
55 51 46 64 49 46 12z m-552 -23 c-7 -26 -19 -34 -29 -19 -4 7 1 18 11 26 24
17 24 17 18 -7z m294 -111 c13 -5 43 -46 76 -106 85 -153 147 -276 147 -295 0
-30 -17 -28 -41 4 -13 18 -47 59 -75 92 -27 34 -98 120 -157 193 l-107 132 67
-6 c38 -3 78 -9 90 -14z m-92 -190 c171 -201 245 -291 245 -296 0 -7 -41 -40
-87 -70 -59 -39 -54 -83 9 -83 15 0 28 -4 28 -9 0 -13 28 -21 102 -29 60 -7
62 -8 69 -39 16 -79 88 -129 168 -118 25 3 75 8 111 11 l65 5 19 -41 c25 -53
109 -139 169 -174 26 -15 47 -29 47 -31 0 -2 -15 1 -32 6 -39 11 -851 11 -950
0 -38 -4 -68 -4 -68 0 0 3 -10 5 -22 3 -13 -2 -43 -5 -67 -8 l-45 -5 61 35
c80 45 158 131 201 223 32 65 36 85 40 175 5 109 -10 193 -49 274 -26 53 -107
143 -166 183 -23 16 -43 34 -43 38 0 12 59 91 68 91 4 0 61 -64 127 -141z
m585 -99 c-1 -34 -56 -214 -66 -217 -7 -2 -17 11 -23 29 -7 18 -22 49 -36 69
-19 29 -105 319 -105 355 0 5 52 -43 115 -106 63 -63 115 -121 115 -130z m180
128 l49 -53 -24 -24 c-14 -14 -26 -23 -28 -20 -23 29 -65 122 -61 134 3 8 8
15 10 15 3 0 27 -24 54 -52z m481 -29 c79 -17 133 -45 193 -100 231 -211 138
-603 -164 -693 -142 -42 -305 4 -406 116 l-39 43 145 2 c80 2 155 5 166 8 23
5 38 42 25 59 -5 6 -12 21 -15 34 -7 20 -4 22 29 22 57 0 95 44 95 109 0 41
-5 56 -28 82 -23 26 -36 32 -76 33 -47 2 -48 4 -141 107 -52 57 -95 107 -95
111 0 11 104 58 150 67 64 13 102 13 161 0z m-1566 -10 c3 -4 -14 -63 -40
-132 -25 -69 -45 -130 -45 -135 0 -6 -19 -16 -42 -24 -50 -15 -88 -65 -88
-112 0 -36 5 -44 44 -74 19 -15 43 -22 71 -22 36 0 48 5 69 31 28 33 33 69 15
128 -10 33 -6 48 41 169 29 72 57 132 63 132 6 0 41 -31 78 -68 76 -78 108
-148 116 -253 16 -207 -129 -391 -335 -429 -160 -29 -343 69 -422 225 -108
212 15 484 253 561 42 14 209 15 222 3z m1239 -121 c10 -13 44 -52 75 -88 87
-101 83 -91 64 -138 -17 -46 -18 -46 -143 -57 -36 -3 -60 -2 -55 2 6 4 29 30
53 57 59 68 57 92 -13 152 l-56 47 22 24 c28 28 30 28 53 1z m-242 -38 c20
-19 21 -20 4 -78 -9 -32 -16 -83 -16 -113 -1 -54 -1 -54 -16 -26 -8 15 -18 27
-22 27 -4 0 -15 7 -24 14 -17 12 -16 17 7 86 14 41 25 82 25 92 0 23 16 23 42
-2z m-317 -260 c4 -6 -9 -10 -32 -9 -30 0 -34 2 -18 9 27 12 43 12 50 0z m716
-46 c31 -29 27 -46 -19 -91 -21 -21 -32 -23 -136 -23 l-114 0 -10 28 c-28 73
-36 67 105 86 70 9 129 19 132 21 8 9 15 5 42 -21z m-389 -89 c4 -21 1 -25
-17 -25 -21 0 -22 2 -12 25 15 32 23 32 29 0z m-1795 -526 c9 -9 5 -17 -15
-34 -28 -24 -107 -61 -98 -46 3 5 20 14 38 21 50 20 70 40 57 57 -14 16 2 18
18 2z m2985 4 c-6 -2 -10 -9 -6 -14 3 -5 1 -9 -5 -9 -5 0 -12 4 -15 9 -6 9 10
19 29 19 6 0 4 -2 -3 -5z m145 -27 c12 -1 25 -5 29 -9 5 -4 0 -5 -11 -1 -11 4
5 -16 35 -45 30 -28 51 -51 46 -51 -4 0 -33 23 -63 50 -45 41 -61 50 -91 50
-28 0 -33 3 -22 10 8 5 24 7 35 3 11 -4 30 -7 42 -7z m-3297 -6 c0 -5 -2 -10
-4 -10 -3 0 -8 5 -11 10 -3 6 -1 10 4 10 6 0 11 -4 11 -10z m4180 -25 c-6 -15
-13 -25 -16 -23 -2 3 1 17 7 32 16 34 23 27 9 -9z m-5020 -40 c0 -5 -5 -3 -10
5 -5 8 -10 20 -10 25 0 6 5 3 10 -5 5 -8 10 -19 10 -25z m870 -12 c0 -1 -9 -7
-20 -13 -21 -11 -44 -5 -35 10 4 7 55 9 55 3z m3467 -39 c-3 -3 -12 -4 -19 -1
-8 3 -5 6 6 6 11 1 17 -2 13 -5z m-3557 -8 c0 -2 -7 -7 -16 -10 -8 -3 -12 -2
-9 4 6 10 25 14 25 6z m3925 -136 c3 -6 -1 -7 -9 -4 -18 7 -21 14 -7 14 6 0
13 -4 16 -10z"/>
<path d="M887 4150 c-27 -17 -60 -51 -77 -77 -26 -41 -120 -307 -120 -340 0
-12 36 -26 195 -76 303 -97 547 -168 558 -164 17 6 107 304 107 353 0 60 -18
111 -52 150 -70 79 -182 113 -263 80 -26 -11 -41 -13 -43 -6 -9 27 -56 70 -97
89 -69 32 -149 29 -208 -9z m128 -250 c3 -5 -1 -10 -9 -10 -9 0 -16 5 -16 10
0 6 4 10 9 10 6 0 13 -4 16 -10z m288 -80 c5 -21 -1 -24 -27 -14 -13 5 -14 9
-5 20 16 19 26 17 32 -6z"/>
<path d="M551 2444 c0 -11 3 -14 6 -6 3 7 2 16 -1 19 -3 4 -6 -2 -5 -13z"/>
<path d="M4220 2386 c0 -2 7 -7 16 -10 8 -3 12 -2 9 4 -6 10 -25 14 -25 6z"/>
<path d="M2217 2372 c-3 -4 1 -13 9 -19 7 -7 15 -9 17 -5 3 4 -1 13 -9 19 -7
7 -15 9 -17 5z"/>
<path d="M5827 2373 c-4 -3 -7 -11 -7 -17 0 -6 5 -5 12 2 6 6 9 14 7 17 -3 3
-9 2 -12 -2z"/>
<path d="M627 2338 c-2 -7 -1 -22 3 -33 6 -16 8 -13 7 13 0 35 -2 39 -10 20z"/>
<path d="M608 2276 c9 -25 20 -46 23 -46 9 0 -15 68 -29 82 -5 5 -3 -10 6 -36z"/>
<path d="M1995 2310 c-4 -6 -16 -8 -28 -4 -22 6 -22 6 -2 -10 22 -17 5 -22
-24 -7 -13 7 -17 5 -17 -8 0 -13 7 -16 29 -13 16 3 31 11 34 18 3 8 8 12 12 9
4 -2 8 2 8 10 0 18 -3 19 -12 5z"/>
<path d="M4377 2308 c-7 -4 3 -6 21 -4 18 2 35 6 38 9 8 8 -46 3 -59 -5z"/>
<path d="M1810 2255 c-8 -9 -8 -15 -2 -15 6 0 17 -3 25 -6 12 -4 14 0 10 15
-6 25 -16 27 -33 6z"/>
<path d="M4440 2261 c0 -5 5 -13 10 -16 6 -3 10 -2 10 4 0 5 -4 13 -10 16 -5
3 -10 2 -10 -4z"/>
<path d="M1930 2250 c-9 -6 -10 -10 -3 -10 6 0 15 5 18 10 8 12 4 12 -15 0z"/>
<path d="M674 2225 c11 -8 24 -15 29 -15 4 0 6 -4 3 -8 -3 -5 1 -9 9 -9 19 0
19 0 -4 25 -10 12 -27 22 -37 22 -18 -1 -18 -1 0 -15z"/>
<path d="M1138 2233 c12 -2 32 -2 45 0 12 2 2 4 -23 4 -25 0 -35 -2 -22 -4z"/>
<path d="M4835 2210 c3 -5 26 -10 51 -10 28 0 43 4 39 10 -3 6 -26 10 -51 10
-28 0 -43 -4 -39 -10z"/>
</g>
</svg>
